<svg id="af55f311-fce9-4b92-bf48-98fad08af8e6" data-name="Layer 1" xmlns="http://www.w3.org/2000/svg" xmlns:xlink="http://www.w3.org/1999/xlink" width="244.76" height="66.66" viewBox="0 0 244.76 66.66">
  <defs>
    <style>
      .a491f1d0-0fac-4a39-b331-13404a7d6b0f, .be38f543-0c23-46b4-9932-18ecdfa42906 {
        fill: #0d4f8a;
      }

      .be38f543-0c23-46b4-9932-18ecdfa42906 {
        font-size: 18px;
        font-family: Lemon-Regular, Lemon;
        letter-spacing: 0em;
      }
    </style>
    <symbol id="f386c2a4-84ce-48f2-97a2-e1ec824564b0" data-name="New Symbol" viewBox="0 0 244.75 66.66">
      <g>
        <path class="a491f1d0-0fac-4a39-b331-13404a7d6b0f" d="M38.26,5.91,31.54.36s-.36-.3,0-.36,9.13,1.15,9.13,1.15l6.91,5.58s.21.09,0,.26S38.26,5.91,38.26,5.91Z"/>
        <path class="a491f1d0-0fac-4a39-b331-13404a7d6b0f" d="M44.52,6.06l-5.81-.68L34,1.48,32.42,4.64s-.13.72.95,1.55c.15.12,3.63,2.4,4.21,2.35s3.73,1.68,5.4.6Z"/>
        <path class="a491f1d0-0fac-4a39-b331-13404a7d6b0f" d="M46.07,5.3a2,2,0,0,1-.14,2.3s.72,1.11-.57,1.25a5.16,5.16,0,0,0,.2,3.21v0a4,4,0,0,1-1.4.05c-.44-.13-1.31-1.35.37-3.67,0,0-.57-.79.56-1.11,0,0,.79-1.27,0-2.16Z"/>
      </g>
      <g>
        <path class="a491f1d0-0fac-4a39-b331-13404a7d6b0f" d="M.36,20,22.55,1.53a1,1,0,0,1,1.29,0L45.4,20a1,1,0,0,1,.08,1.44,2.12,2.12,0,0,1-3.1.14C40.05,19.71,27,8.6,24,6a1,1,0,0,0-1.27,0L3,21.61a1.22,1.22,0,0,1-.36.18,3.51,3.51,0,0,1-1.94-.07h0A1,1,0,0,1,.36,20Z"/>
        <path class="a491f1d0-0fac-4a39-b331-13404a7d6b0f" d="M34.45,5.91H37a1,1,0,0,1,1,1v5.76a1,1,0,0,1-1.61.78l-2.51-2a1,1,0,0,1-.38-.78V6.9A1,1,0,0,1,34.45,5.91Z"/>
        <path class="a491f1d0-0fac-4a39-b331-13404a7d6b0f" d="M6.65,16.85l16-12.69a1,1,0,0,1,1.26,0L39.19,16.85a1,1,0,0,1,.35.77V34a1,1,0,0,1-1,1H27.82a1,1,0,0,1-1-1V25.69a1.13,1.13,0,0,0-.05-.32,1.45,1.45,0,0,0-.93-1,57.88,57.88,0,0,0-5.92,0,1,1,0,0,0-.68.31.78.78,0,0,0-.25.49V34a1,1,0,0,1-1,1H7.27a1,1,0,0,1-1-1V17.63A1,1,0,0,1,6.65,16.85Z"/>
      </g>
      <text class="be38f543-0c23-46b4-9932-18ecdfa42906" transform="translate(45.93 33.26) scale(0.95 1)">HomeTutoring</text>
    </symbol>
  </defs>
  <use width="244.76" height="66.66" xlink:href="#f386c2a4-84ce-48f2-97a2-e1ec824564b0"/>
</svg>
